<svg width="23" height="22" viewBox="0 0 23 22" fill="none" xmlns="http://www.w3.org/2000/svg">
<path d="M10.2668 20.8993L1.43346 12.0993C1.27791 11.9437 1.16124 11.7715 1.08346 11.5826C1.00569 11.3937 0.966797 11.1993 0.966797 10.9993C0.966797 10.7993 1.00569 10.6048 1.08346 10.4159C1.16124 10.227 1.27791 10.0548 1.43346 9.89927L10.3001 1.03261C10.6112 0.721495 10.9779 0.571495 11.4001 0.582606C11.8224 0.593717 12.189 0.754828 12.5001 1.06594C12.8112 1.39927 12.9668 1.77705 12.9668 2.19927C12.9668 2.62149 12.8112 2.98816 12.5001 3.29927L6.40013 9.4326H20.8668C21.3112 9.4326 21.6835 9.58261 21.9835 9.88261C22.2835 10.1826 22.4335 10.5548 22.4335 10.9993C22.4335 11.4437 22.2835 11.8159 21.9835 12.1159C21.6835 12.4159 21.3112 12.5659 20.8668 12.5659H6.40013L12.5335 18.7326C12.8446 19.0437 12.9946 19.4048 12.9835 19.8159C12.9724 20.227 12.8112 20.5882 12.5001 20.8993C12.1668 21.2326 11.789 21.3993 11.3668 21.3993C10.9446 21.3993 10.5779 21.2326 10.2668 20.8993Z" fill="#303030"/>
</svg>
