<svg width="18" height="12" viewBox="0 0 18 12" fill="none" xmlns="http://www.w3.org/2000/svg">
<path d="M7.75 12C7.53333 12 7.35417 11.9292 7.2125 11.7875C7.07083 11.6458 7 11.4667 7 11.25C7 11.0333 7.07083 10.8542 7.2125 10.7125C7.35417 10.5708 7.53333 10.5 7.75 10.5H10.25C10.4667 10.5 10.6458 10.5708 10.7875 10.7125C10.9292 10.8542 11 11.0333 11 11.25C11 11.4667 10.9292 11.6458 10.7875 11.7875C10.6458 11.9292 10.4667 12 10.25 12H7.75ZM0.75 1.5C0.533333 1.5 0.354167 1.42917 0.2125 1.2875C0.0708334 1.14583 0 0.966667 0 0.75C0 0.533333 0.0708334 0.354167 0.2125 0.2125C0.354167 0.0708334 0.533333 0 0.75 0H17.25C17.4667 0 17.6458 0.0708334 17.7875 0.2125C17.9292 0.354167 18 0.533333 18 0.75C18 0.966667 17.9292 1.14583 17.7875 1.2875C17.6458 1.42917 17.4667 1.5 17.25 1.5H0.75ZM3.75 6.75C3.53333 6.75 3.35417 6.67917 3.2125 6.5375C3.07083 6.39583 3 6.21667 3 6C3 5.78333 3.07083 5.60417 3.2125 5.4625C3.35417 5.32083 3.53333 5.25 3.75 5.25H14.25C14.4667 5.25 14.6458 5.32083 14.7875 5.4625C14.9292 5.60417 15 5.78333 15 6C15 6.21667 14.9292 6.39583 14.7875 6.5375C14.6458 6.67917 14.4667 6.75 14.25 6.75H3.75Z" fill="#595959"/>
</svg>
