<svg width="28" height="28" viewBox="0 0 28 28" fill="none" xmlns="http://www.w3.org/2000/svg">
<path d="M12.0332 17.0334L8.7665 13.7667C8.5665 13.5667 8.32206 13.4667 8.03317 13.4667C7.74428 13.4667 7.48873 13.5779 7.2665 13.8001C7.0665 14.0001 6.9665 14.2445 6.9665 14.5334C6.9665 14.8223 7.0665 15.0667 7.2665 15.2667L11.3332 19.3667C11.5332 19.5667 11.7665 19.6667 12.0332 19.6667C12.2998 19.6667 12.5332 19.5667 12.7332 19.3667L20.6998 11.4001C20.9221 11.1779 21.0332 10.9223 21.0332 10.6334C21.0332 10.3445 20.9221 10.089 20.6998 9.86675C20.4776 9.66675 20.2165 9.5723 19.9165 9.58341C19.6165 9.59453 19.3665 9.70008 19.1665 9.90008L12.0332 17.0334ZM13.9998 27.3334C12.1776 27.3334 10.4554 26.9834 8.83317 26.2834C7.21095 25.5834 5.79428 24.6279 4.58317 23.4167C3.37206 22.2056 2.4165 20.789 1.7165 19.1667C1.0165 17.5445 0.666504 15.8223 0.666504 14.0001C0.666504 12.1556 1.0165 10.4223 1.7165 8.80008C2.4165 7.17786 3.37206 5.76675 4.58317 4.56675C5.79428 3.36675 7.21095 2.41675 8.83317 1.71675C10.4554 1.01675 12.1776 0.666748 13.9998 0.666748C15.8443 0.666748 17.5776 1.01675 19.1998 1.71675C20.8221 2.41675 22.2332 3.36675 23.4332 4.56675C24.6332 5.76675 25.5832 7.17786 26.2832 8.80008C26.9832 10.4223 27.3332 12.1556 27.3332 14.0001C27.3332 15.8223 26.9832 17.5445 26.2832 19.1667C25.5832 20.789 24.6332 22.2056 23.4332 23.4167C22.2332 24.6279 20.8221 25.5834 19.1998 26.2834C17.5776 26.9834 15.8443 27.3334 13.9998 27.3334ZM13.9998 25.3334C17.1554 25.3334 19.8332 24.2279 22.0332 22.0167C24.2332 19.8056 25.3332 17.1334 25.3332 14.0001C25.3332 10.8445 24.2332 8.16675 22.0332 5.96675C19.8332 3.76675 17.1554 2.66675 13.9998 2.66675C10.8665 2.66675 8.19428 3.76675 5.98317 5.96675C3.77206 8.16675 2.6665 10.8445 2.6665 14.0001C2.6665 17.1334 3.77206 19.8056 5.98317 22.0167C8.19428 24.2279 10.8665 25.3334 13.9998 25.3334Z" fill="#007A78"/>
</svg>
