<svg width="28" height="28" viewBox="0 0 28 28" fill="none" xmlns="http://www.w3.org/2000/svg">
<path d="M13.9998 15.4001L18.2998 19.7001C18.4998 19.9001 18.7332 20.0001 18.9998 20.0001C19.2665 20.0001 19.4998 19.9001 19.6998 19.7001C19.8998 19.5001 19.9998 19.2667 19.9998 19.0001C19.9998 18.7334 19.8998 18.5001 19.6998 18.3001L15.3998 14.0001L19.6998 9.70008C19.8998 9.50008 19.9998 9.26675 19.9998 9.00008C19.9998 8.73341 19.8998 8.50008 19.6998 8.30008C19.4998 8.10008 19.2665 8.00008 18.9998 8.00008C18.7332 8.00008 18.4998 8.10008 18.2998 8.30008L13.9998 12.6001L9.69984 8.30008C9.49984 8.10008 9.2665 8.00008 8.99984 8.00008C8.73317 8.00008 8.49984 8.10008 8.29984 8.30008C8.09984 8.50008 7.99984 8.73341 7.99984 9.00008C7.99984 9.26675 8.09984 9.50008 8.29984 9.70008L12.5998 14.0001L8.29984 18.3001C8.09984 18.5001 7.99984 18.7334 7.99984 19.0001C7.99984 19.2667 8.09984 19.5001 8.29984 19.7001C8.49984 19.9001 8.73317 20.0001 8.99984 20.0001C9.2665 20.0001 9.49984 19.9001 9.69984 19.7001L13.9998 15.4001ZM13.9998 27.3334C12.1776 27.3334 10.4554 26.9834 8.83317 26.2834C7.21095 25.5834 5.79428 24.6279 4.58317 23.4167C3.37206 22.2056 2.4165 20.789 1.7165 19.1667C1.0165 17.5445 0.666504 15.8223 0.666504 14.0001C0.666504 12.1556 1.0165 10.4223 1.7165 8.80008C2.4165 7.17786 3.37206 5.76675 4.58317 4.56675C5.79428 3.36675 7.21095 2.41675 8.83317 1.71675C10.4554 1.01675 12.1776 0.666748 13.9998 0.666748C15.8443 0.666748 17.5776 1.01675 19.1998 1.71675C20.8221 2.41675 22.2332 3.36675 23.4332 4.56675C24.6332 5.76675 25.5832 7.17786 26.2832 8.80008C26.9832 10.4223 27.3332 12.1556 27.3332 14.0001C27.3332 15.8223 26.9832 17.5445 26.2832 19.1667C25.5832 20.789 24.6332 22.2056 23.4332 23.4167C22.2332 24.6279 20.8221 25.5834 19.1998 26.2834C17.5776 26.9834 15.8443 27.3334 13.9998 27.3334ZM13.9998 25.3334C17.1554 25.3334 19.8332 24.2279 22.0332 22.0167C24.2332 19.8056 25.3332 17.1334 25.3332 14.0001C25.3332 10.8445 24.2332 8.16675 22.0332 5.96675C19.8332 3.76675 17.1554 2.66675 13.9998 2.66675C10.8665 2.66675 8.19428 3.76675 5.98317 5.96675C3.77206 8.16675 2.6665 10.8445 2.6665 14.0001C2.6665 17.1334 3.77206 19.8056 5.98317 22.0167C8.19428 24.2279 10.8665 25.3334 13.9998 25.3334Z" fill="#B40500"/>
</svg>
