<svg width="9" height="10" viewBox="0 0 9 10" fill="none" xmlns="http://www.w3.org/2000/svg">
<path d="M4.34622 9.13558C4.22393 9.13558 4.1228 9.0956 4.04283 9.01564C3.96287 8.93567 3.92289 8.83454 3.92289 8.71225V1.71314L0.719666 4.91636C0.635 5.00103 0.536222 5.04336 0.423333 5.04336C0.310444 5.04336 0.211667 5.00103 0.127 4.91636C0.0423333 4.83169 0 4.73291 0 4.62003C0 4.50714 0.0423333 4.40836 0.127 4.32369L4.04989 0.400804C4.09693 0.353767 4.14631 0.320841 4.19806 0.302026C4.2498 0.283211 4.29918 0.273804 4.34622 0.273804C4.40267 0.273804 4.45441 0.283211 4.50144 0.302026C4.54848 0.320841 4.59552 0.353767 4.64256 0.400804L8.56544 4.32369C8.65011 4.40836 8.69244 4.50714 8.69244 4.62003C8.69244 4.73291 8.65011 4.83169 8.56544 4.91636C8.48078 5.00103 8.382 5.04336 8.26911 5.04336C8.15622 5.04336 8.05744 5.00103 7.97278 4.91636L4.76956 1.71314V8.71225C4.76956 8.83454 4.72957 8.93567 4.64961 9.01564C4.56965 9.0956 4.46852 9.13558 4.34622 9.13558Z" fill="#027A48"/>
</svg>
