<svg width="32" height="40" viewBox="0 0 32 40" fill="none" xmlns="http://www.w3.org/2000/svg">
<path d="M14.6 23.85V32.4C14.6 32.8333 14.7417 33.1917 15.025 33.475C15.3083 33.7583 15.6667 33.9 16.1 33.9C16.5333 33.9 16.8917 33.7583 17.175 33.475C17.4583 33.1917 17.6 32.8333 17.6 32.4V23.85L20.65 26.9C20.75 27 21 26.9667 21.4 26.8C21.8 26.6333 22.175 26.4833 22.525 26.35C22.875 26.2167 23.1167 26.1583 23.25 26.175C23.3833 26.1917 23.2167 26.4333 22.75 26.9C23.05 26.6 23.1917 26.25 23.175 25.85C23.1583 25.45 23 25.1 22.7 24.8L17.05 19.3C16.8833 19.1333 16.7167 19.0167 16.55 18.95C16.3833 18.8833 16.2 18.85 16 18.85C15.8 18.85 15.6167 18.8833 15.45 18.95C15.2833 19.0167 15.1167 19.1333 14.95 19.3L9.35 24.9C9.05 25.2 8.9 25.55 8.9 25.95C8.9 26.35 9.05 26.7 9.35 27C9.65 27.3 10 27.45 10.4 27.45C10.8 27.45 11.15 27.3 11.45 27L14.6 23.85ZM3 40C2.2 40 1.5 39.7 0.9 39.1C0.3 38.5 0 37.8 0 37V3C0 2.2 0.3 1.5 0.9 0.9C1.5 0.3 2.2 0 3 0H19.8C20.2 0 20.5917 0.0833333 20.975 0.25C21.3583 0.416667 21.6833 0.633333 21.95 0.9L31.1 10.05C31.3667 10.3167 31.5833 10.6417 31.75 11.025C31.9167 11.4083 32 11.8 32 12.2V37C32 37.8 31.7 38.5 31.1 39.1C30.5 39.7 29.8 40 29 40H3ZM19.55 10.8V3H3V37H29V12.3H21.05C20.6167 12.3 20.2583 12.1583 19.975 11.875C19.6917 11.5917 19.55 11.2333 19.55 10.8Z" fill="#EAEAEA"/>
</svg>
